<svg width="24" height="22" viewBox="0 0 24 22" fill="none" xmlns="http://www.w3.org/2000/svg">
<path d="M15.2908 5.11703H13.0395V15.4231C13.0395 15.5572 12.9298 15.6669 12.7957 15.6669H10.9679C10.8338 15.6669 10.7242 15.5572 10.7242 15.4231V5.11703H8.46674C8.26263 5.11703 8.14991 4.88245 8.27482 4.72404L11.6868 0.404179C11.7096 0.37505 11.7388 0.351492 11.772 0.33529C11.8053 0.319089 11.8418 0.310669 11.8788 0.310669C11.9158 0.310669 11.9523 0.319089 11.9855 0.33529C12.0188 0.351492 12.0479 0.37505 12.0707 0.404179L15.4827 4.72099C15.6076 4.88245 15.4949 5.11703 15.2908 5.11703ZM0.728777 14.5092H2.55664C2.69069 14.5092 2.80036 14.6189 2.80036 14.7529V19.4445H20.9572V14.7529C20.9572 14.6189 21.0668 14.5092 21.2009 14.5092H23.0287C23.1628 14.5092 23.2725 14.6189 23.2725 14.7529V20.7849C23.2725 21.3241 22.8368 21.7598 22.2976 21.7598H1.45992C0.920704 21.7598 0.485062 21.3241 0.485062 20.7849V14.7529C0.485062 14.6189 0.594734 14.5092 0.728777 14.5092Z" fill="white"/>
</svg>
