<svg width="35" height="22" viewBox="0 0 35 22" fill="none" xmlns="http://www.w3.org/2000/svg">
<path fill-rule="evenodd" clip-rule="evenodd" d="M0.4375 11C0.4375 10.7016 0.565904 10.4154 0.794464 10.2045C1.02302 9.99348 1.33302 9.87495 1.65625 9.87495H30.4017L22.7309 2.79646C22.502 2.58521 22.3735 2.2987 22.3735 1.99996C22.3735 1.70121 22.502 1.4147 22.7309 1.20346C22.9597 0.992211 23.2701 0.873535 23.5938 0.873535C23.9174 0.873535 24.2278 0.992211 24.4566 1.20346L34.2066 10.2035C34.3201 10.308 34.4102 10.4321 34.4716 10.5688C34.5331 10.7055 34.5647 10.852 34.5647 11C34.5647 11.1479 34.5331 11.2944 34.4716 11.4311C34.4102 11.5678 34.3201 11.6919 34.2066 11.7965L24.4566 20.7964C24.2278 21.0077 23.9174 21.1264 23.5938 21.1264C23.2701 21.1264 22.9597 21.0077 22.7309 20.7964C22.502 20.5852 22.3735 20.2987 22.3735 19.9999C22.3735 19.7012 22.502 19.4147 22.7309 19.2034L30.4017 12.125H1.65625C1.33302 12.125 1.02302 12.0064 0.794464 11.7954C0.565904 11.5845 0.4375 11.2983 0.4375 11Z" fill="black"/>
</svg>
