<svg id="user-icon" xmlns="http://www.w3.org/2000/svg" width="23" height="27" viewBox="0 0 23 27">
  <path id="Shape" d="M6.5,0A6.5,6.5,0,1,0,13,6.5,6.507,6.507,0,0,0,6.5,0Zm0,11.375A4.875,4.875,0,1,1,11.375,6.5,4.881,4.881,0,0,1,6.5,11.375Z" transform="translate(5)" fill="#16192b"/>
  <path id="Shape-2" data-name="Shape" d="M11.5,0A11.357,11.357,0,0,0,0,11.182V12H23v-.818A11.357,11.357,0,0,0,11.5,0ZM1.719,10.364A9.726,9.726,0,0,1,11.5,1.636a9.726,9.726,0,0,1,9.781,8.727Z" transform="translate(0 15)" fill="#16192b"/>
</svg>
